<svg id="Layer_1" data-name="Layer 1" xmlns="http://www.w3.org/2000/svg" viewBox="0 0 2993 9178.27"><defs><style>.cls-1{fill:#079443;}.cls-1,.cls-2,.cls-3{fill-rule:evenodd;opacity:0.05;}.cls-2{fill:#ff7c1a;}.cls-3{fill:#442d84;}</style></defs><path id="Fill-41" class="cls-1" d="M124,1531.44,425.54,1904,1001,1435.56,699.46,1063ZM412.61,2028,0,1518.52,712.39,939,1125,1448.48Z"/><path id="Fill-41-2" data-name="Fill-41" class="cls-2" d="M1434,3436.44,1735.54,3809,2311,3340.56,2009.46,2968ZM1722.61,3933,1310,3423.52,2022.39,2844,2435,3353.48Z"/><path id="Fill-41-3" data-name="Fill-41" class="cls-3" d="M1992,592.44,2293.54,965,2869,496.56,2567.46,124ZM2280.61,1089,1868,579.52,2580.39,0,2993,509.48Z"/><path id="Fill-41-4" data-name="Fill-41" class="cls-1" d="M1986.8,6120.92l301.55,372.56L2863.8,6025l-301.54-372.56Zm288.62,496.56L1862.8,6108l712.39-579.52L2987.8,6038Z"/><path id="Fill-41-5" data-name="Fill-41" class="cls-2" d="M147.19,8025.92l301.55,372.56L1024.19,7930,722.65,7557.48Zm288.62,496.56L23.19,8013l712.39-579.52L1148.19,7943Z"/><path id="Fill-41-6" data-name="Fill-41" class="cls-3" d="M129.2,5181.92l301.54,372.56L1006.2,5086,704.65,4713.48Zm288.61,496.56L5.2,5169l712.38-579.52L1130.2,5099Z"/></svg>