<?xml version="1.0" encoding="UTF-8"?> <svg xmlns="http://www.w3.org/2000/svg" xmlns:xlink="http://www.w3.org/1999/xlink" width="276px" height="135px" viewBox="0 0 276 135" version="1.1"><title>White Logo</title><defs><polygon id="path-1" points="0 134 275.175472 134 275.175472 0.828363636 0 0.828363636"></polygon></defs><g id="Page-1" stroke="none" stroke-width="1" fill="none" fill-rule="evenodd"><g id="NVS-CSI-Home" transform="translate(-536.000000, -6163.000000)"><g id="Footer" transform="translate(-8.000000, 5974.000000)"><g id="White-Logo" transform="translate(544.000000, 189.000000)"><polygon id="Fill-1" fill="#FFFFFF" points="13.2439523 58.0020421 13.2439523 105 2 105 2 37 13.3452492 37 37.7577942 82.2665374 37.7577942 37 49 37 49 105 38.2642785 105"></polygon><polygon id="Fill-2" fill="#FFFFFF" points="56 37 67.9760691 37 82.549047 91.6443324 97.02221 37 109 37 89.1368315 105 75.8631685 105"></polygon><g id="Group-44"><path d="M116.229849,89.4644909 C119.854302,93.6028286 125.593019,96.7318156 132.237849,96.7318156 C139.184717,96.7318156 142.706755,92.5934779 142.706755,87.8495299 C142.706755,81.793426 137.070453,79.1691143 130.626981,76.2419974 C122.270604,72.6083351 112.605396,68.4699974 112.605396,55.8548545 C112.605396,45.3558675 120.760415,37.0791922 133.446,37.0791922 C141.297245,37.0791922 147.943811,39.7052442 152.776415,44.3482571 L147.338,52.8250623 C143.413245,48.8903351 138.379283,47.0735039 133.143962,47.0735039 C127.707283,47.0735039 123.982151,50.303426 123.982151,55.2475039 C123.982151,60.3951922 129.318151,62.8176338 135.560264,65.6438156 C144.116264,69.4793481 154.085245,73.9204909 154.085245,86.9411143 C154.085245,97.9430364 146.634981,106.722647 132.237849,106.722647 C122.673321,106.722647 115.525094,103.39353 110.591811,98.1449065 L116.229849,89.4644909 Z" id="Fill-3" fill="#FFFFFF"></path><path d="M0,123.547478 C0,119.022803 2.30173585,115.742413 5.93486792,115.742413 C8.43969811,115.742413 9.77109434,117.258179 10.5834717,118.887062 L8.80075472,119.701504 C8.21403774,118.479842 7.26626415,117.6654 5.93486792,117.6654 C3.65569811,117.6654 2.18890566,120.153971 2.18890566,123.547478 C2.18890566,126.940984 3.65569811,129.429556 5.93486792,129.429556 C7.33396226,129.429556 8.28173585,128.479374 8.80075472,127.212465 L10.6060377,128.026906 C9.79366038,129.746283 8.48483019,131.352543 5.93486792,131.352543 C2.30173585,131.352543 0,128.072153 0,123.547478" id="Fill-5" fill="#FFFFFF"></path><path d="M17.0600981,120.153623 C15.0291547,120.153623 13.991117,122.234974 13.991117,124.859286 C13.991117,127.460974 15.0291547,129.564948 17.0600981,129.564948 C19.0684755,129.564948 20.1065132,127.460974 20.1065132,124.859286 C20.1065132,122.234974 19.0684755,120.153623 17.0600981,120.153623 M17.0600981,118.366377 C20.3547396,118.366377 22.1825887,121.216922 22.1825887,124.859286 C22.1825887,128.501649 20.3547396,131.353935 17.0600981,131.353935 C13.7654566,131.353935 11.9376075,128.501649 11.9376075,124.859286 C11.9376075,121.216922 13.7654566,118.366377 17.0600981,118.366377" id="Fill-7" fill="#FFFFFF"></path><path d="M28.5236453,120.402481 L26.4927019,120.402481 L26.4927019,124.610429 L28.5236453,124.610429 C29.7647774,124.610429 30.3966264,123.705494 30.3966264,122.483831 C30.3966264,121.284792 29.7422113,120.402481 28.5236453,120.402481 L28.5236453,120.402481 Z M28.0723245,126.352429 L26.4927019,126.352429 L26.4927019,131.080714 L24.4617585,131.080714 L24.4617585,118.637857 L28.7267396,118.637857 C31.1187396,118.637857 32.4501358,120.33461 32.4501358,122.483831 C32.4501358,124.565182 31.2992679,125.786844 29.9678717,126.058325 L32.6080981,131.080714 L30.3289283,131.080714 L28.0723245,126.352429 Z" id="Fill-9" fill="#FFFFFF"></path><path d="M38.8811094,120.402481 L36.850166,120.402481 L36.850166,124.610429 L38.8811094,124.610429 C40.1222415,124.610429 40.7315245,123.705494 40.7315245,122.506455 C40.7315245,121.284792 40.0996755,120.402481 38.8811094,120.402481 L38.8811094,120.402481 Z M34.8192226,118.637857 L39.0842038,118.637857 C41.5664679,118.637857 42.8076,120.425104 42.8076,122.483831 C42.8076,124.587805 41.589034,126.352429 39.0842038,126.352429 L36.850166,126.352429 L36.850166,131.080714 L34.8192226,131.080714 L34.8192226,118.637857 Z" id="Fill-11" fill="#FFFFFF"></path><path d="M49.3514038,120.153623 C47.3204604,120.153623 46.2824226,122.234974 46.2824226,124.859286 C46.2824226,127.460974 47.3204604,129.564948 49.3514038,129.564948 C51.3597811,129.564948 52.3978189,127.460974 52.3978189,124.859286 C52.3978189,122.234974 51.3597811,120.153623 49.3514038,120.153623 M49.3514038,118.366377 C52.6460453,118.366377 54.4738943,121.216922 54.4738943,124.859286 C54.4738943,128.501649 52.6460453,131.353935 49.3514038,131.353935 C46.0567623,131.353935 44.2289132,128.501649 44.2289132,124.859286 C44.2289132,121.216922 46.0567623,118.366377 49.3514038,118.366377" id="Fill-13" fill="#FFFFFF"></path><path d="M60.8149509,120.402481 L58.7840075,120.402481 L58.7840075,124.610429 L60.8149509,124.610429 C62.056083,124.610429 62.6879321,123.705494 62.6879321,122.483831 C62.6879321,121.284792 62.033517,120.402481 60.8149509,120.402481 L60.8149509,120.402481 Z M60.3636302,126.352429 L58.7840075,126.352429 L58.7840075,131.080714 L56.7530642,131.080714 L56.7530642,118.637857 L61.0180453,118.637857 C63.4100453,118.637857 64.7414415,120.33461 64.7414415,122.483831 C64.7414415,124.565182 63.5905736,125.786844 62.2591774,126.058325 L64.8994038,131.080714 L62.620234,131.080714 L60.3636302,126.352429 Z" id="Fill-15" fill="#FFFFFF"></path><path d="M69.0966868,126.737374 L72.5944226,126.737374 L70.8342717,120.696932 L69.0966868,126.737374 Z M75.8890642,131.081062 L73.7678566,131.081062 L73.0231774,128.501997 L68.6679321,128.501997 L67.9232528,131.081062 L65.8020453,131.081062 L69.6608377,118.638205 L72.0302717,118.638205 L75.8890642,131.081062 Z" id="Fill-17" fill="#FFFFFF"></path><polygon id="Fill-19" fill="#FFFFFF" points="78.5971623 120.402481 75.7764075 120.402481 75.7764075 118.637857 83.4488604 118.637857 83.4488604 120.402481 80.6055396 120.402481 80.6055396 131.080714 78.5971623 131.080714"></polygon><polygon id="Fill-21" fill="#FFFFFF" points="85.2761887 118.637683 92.2942264 118.637683 92.2942264 120.402306 87.3071321 120.402306 87.3071321 123.84106 92.1813962 123.84106 92.1813962 125.605683 87.3071321 125.605683 87.3071321 129.315917 92.2942264 129.315917 92.2942264 131.08054 85.2761887 131.08054"></polygon><path d="M99.7851094,127.778223 C100.574921,128.705782 101.861185,129.42973 103.327977,129.42973 C105.065562,129.42973 105.900506,128.389055 105.900506,127.190016 C105.900506,125.674249 104.546543,125.018171 103.034619,124.316847 C101.20677,123.479782 99.1081283,122.574847 99.1081283,119.837418 C99.1081283,117.50721 100.935977,115.740847 103.621336,115.740847 C105.336355,115.740847 106.758015,116.329055 107.773487,117.348847 L106.690317,118.97773 C105.855374,118.072795 104.727072,117.663834 103.553638,117.663834 C102.244808,117.663834 101.297034,118.480016 101.297034,119.724301 C101.297034,121.013834 102.583298,121.602042 104.004958,122.280743 C105.900506,123.163055 108.066845,124.181106 108.066845,127.054275 C108.066845,129.384483 106.509789,131.352717 103.350543,131.352717 C101.297034,131.352717 99.7399774,130.606145 98.6793736,129.452353 L99.7851094,127.778223 Z" id="Fill-23" fill="#FFFFFF"></path><polygon id="Fill-25" fill="#FFFFFF" points="110.278143 118.637683 117.296181 118.637683 117.296181 120.402306 112.309087 120.402306 112.309087 123.84106 117.183351 123.84106 117.183351 125.605683 112.309087 125.605683 112.309087 129.315917 117.296181 129.315917 117.296181 131.08054 110.278143 131.08054"></polygon><path d="M123.726634,120.402481 L121.695691,120.402481 L121.695691,124.610429 L123.726634,124.610429 C124.967766,124.610429 125.599615,123.705494 125.599615,122.483831 C125.599615,121.284792 124.9452,120.402481 123.726634,120.402481 L123.726634,120.402481 Z M123.275313,126.352429 L121.695691,126.352429 L121.695691,131.080714 L119.664747,131.080714 L119.664747,118.637857 L123.929728,118.637857 C126.321728,118.637857 127.653125,120.33461 127.653125,122.483831 C127.653125,124.565182 126.502257,125.786844 125.17086,126.058325 L127.811087,131.080714 L125.531917,131.080714 L123.275313,126.352429 Z" id="Fill-27" fill="#FFFFFF"></path><polygon id="Fill-29" fill="#FFFFFF" points="128.713902 118.637683 130.880242 118.637683 133.746128 128.571086 136.634581 118.637683 138.800921 118.637683 134.942128 131.08054 132.572694 131.08054"></polygon><mask id="mask-2" fill="white"><use xlink:href="#path-1"></use></mask><g id="Clip-32"></g><polygon id="Fill-31" fill="#FFFFFF" mask="url(#mask-2)" points="140.289585 131.079844 142.320528 131.079844 142.320528 118.636987 140.289585 118.636987"></polygon><path d="M149.8128,118.366551 C151.866309,118.366551 153.084875,119.588213 153.852121,121.081356 L152.2048,121.805304 C151.685781,120.764629 150.873404,120.153797 149.8128,120.153797 C147.849555,120.153797 146.653555,122.144655 146.653555,124.85946 C146.653555,127.529018 147.849555,129.565122 149.8128,129.565122 C150.89597,129.565122 151.753479,128.909044 152.2048,127.868369 L153.852121,128.569694 C153.107442,130.108083 151.888875,131.352369 149.8128,131.352369 C146.585857,131.352369 144.600045,128.592317 144.600045,124.85946 C144.600045,121.103979 146.585857,118.366551 149.8128,118.366551" id="Fill-33" fill="#FFFFFF" mask="url(#mask-2)"></path><polygon id="Fill-34" fill="#FFFFFF" mask="url(#mask-2)" points="155.76954 118.637683 162.787577 118.637683 162.787577 120.402306 157.800483 120.402306 157.800483 123.84106 162.674747 123.84106 162.674747 125.605683 157.800483 125.605683 157.800483 129.315917 162.787577 129.315917 162.787577 131.08054 155.76954 131.08054"></polygon><path d="M165.224362,128.208242 C165.923909,129.022683 167.052211,129.610891 168.293343,129.610891 C169.692438,129.610891 170.414551,128.864319 170.414551,127.823644 C170.414551,126.624605 169.286249,126.104268 168.045117,125.538683 C166.465494,124.837358 164.682777,124.068164 164.682777,121.783203 C164.682777,119.814969 166.284966,118.367073 168.586702,118.367073 C170.143758,118.367073 171.317192,118.863047 172.264966,119.747099 L171.339758,121.240242 C170.595079,120.471047 169.602174,120.109073 168.631834,120.109073 C167.548664,120.109073 166.758853,120.765151 166.758853,121.737956 C166.758853,122.756008 167.774325,123.231099 168.970325,123.77406 C170.572513,124.498008 172.490626,125.312449 172.490626,127.755774 C172.490626,129.837125 171.001268,131.352891 168.338475,131.352891 C166.600891,131.352891 165.246928,130.764683 164.276589,129.746631 L165.224362,128.208242 Z" id="Fill-35" fill="#FFFFFF" mask="url(#mask-2)"></path><path d="M174.40874,133.253081 C175.130853,132.77799 175.807834,131.873055 175.920664,131.126483 C175.875532,131.149106 175.71757,131.17173 175.60474,131.17173 C174.927758,131.17173 174.40874,130.651392 174.40874,129.927444 C174.40874,129.203496 174.995457,128.592665 175.740136,128.592665 C176.552513,128.592665 177.25206,129.248743 177.25206,130.425158 C177.25206,131.873055 176.439683,133.207834 175.333947,133.999652 L174.40874,133.253081 Z" id="Fill-36" fill="#FFFFFF" mask="url(#mask-2)"></path><polygon id="Fill-37" fill="#FFFFFF" mask="url(#mask-2)" points="184.765509 131.079844 186.909283 131.079844 186.909283 115.990052 184.765509 115.990052"></polygon><polygon id="Fill-38" fill="#FFFFFF" mask="url(#mask-2)" points="191.806287 122.280395 191.806287 131.080888 189.820475 131.080888 189.820475 118.638031 191.941683 118.638031 196.703117 127.212291 196.703117 118.638031 198.688928 118.638031 198.688928 131.080888 196.657985 131.080888"></polygon><path d="M206.1812,118.366551 C208.234709,118.366551 209.453275,119.588213 210.220521,121.081356 L208.5732,121.805304 C208.054181,120.764629 207.241804,120.153797 206.1812,120.153797 C204.217955,120.153797 203.021955,122.144655 203.021955,124.85946 C203.021955,127.529018 204.217955,129.565122 206.1812,129.565122 C207.26437,129.565122 208.121879,128.909044 208.5732,127.868369 L210.220521,128.569694 C209.475842,130.108083 208.257275,131.352369 206.1812,131.352369 C202.954257,131.352369 200.968445,128.592317 200.968445,124.85946 C200.968445,121.103979 202.954257,118.366551 206.1812,118.366551" id="Fill-39" fill="#FFFFFF" mask="url(#mask-2)"></path><path d="M213.401811,128.592317 C214.123925,128.592317 214.755774,129.203148 214.755774,129.949719 C214.755774,130.696291 214.123925,131.307122 213.401811,131.307122 C212.657132,131.307122 212.025283,130.696291 212.025283,129.949719 C212.025283,129.203148 212.657132,128.592317 213.401811,128.592317" id="Fill-40" fill="#000000" mask="url(#mask-2)"></path><path d="M162.053487,35.0702364 L179.486619,56.6024701 L212.755902,29.5292494 L195.32277,7.99701558 L162.053487,35.0702364 Z M178.743675,63.7723403 L154.901789,34.3236649 L196.065713,0.827145455 L219.9076,30.2758208 L178.743675,63.7723403 Z" id="Fill-41" fill="#FFFFFF" mask="url(#mask-2)"></path><path d="M189.688898,68.8006468 L207.12203,90.3328805 L240.391313,63.2596597 L222.958181,41.727426 L189.688898,68.8006468 Z M206.379087,97.5027506 L182.5372,68.0540753 L223.701125,34.5575558 L247.543011,64.0062312 L206.379087,97.5027506 Z" id="Fill-42" fill="#FFFFFF" mask="url(#mask-2)"></path><path d="M217.321011,102.525836 L234.754143,124.05807 L268.023426,96.9865896 L250.590294,75.4543558 L217.321011,102.525836 Z M234.0112,131.22794 L210.169313,101.779265 L251.333238,68.2844857 L275.175125,97.733161 L234.0112,131.22794 Z" id="Fill-43" fill="#FFFFFF" mask="url(#mask-2)"></path></g></g></g></g></g></svg> 