<?xml version="1.0" encoding="UTF-8"?> <svg xmlns="http://www.w3.org/2000/svg" id="Layer_2" viewBox="0 0 636.96 361.34"><defs><style>.cls-1{fill:#442d84;}.cls-1,.cls-2,.cls-3{isolation:isolate;}.cls-2{fill:#079443;}.cls-3{fill:#ff7c1a;}</style></defs><g id="Layer_1-2"><path class="cls-1" d="m398.21,0l-98.86,105.16,76.16,81.26,97.73-107.27L398.21,0Zm-74.13,105.62l74.78-79.94,50.17,53-74.15,81.12-50.8-54.18Z"></path><path class="cls-2" d="m480.07,87.75l-98.86,105.16,76.16,81.26,97.73-107.27-75.03-79.15Zm-74.13,105.62l74.78-79.94,50.17,53-74.15,81.12-50.8-54.18Z"></path><path class="cls-3" d="m561.94,174.92l-98.86,105.16,76.16,81.26,97.73-107.27-75.03-79.15Zm-74.13,105.62l74.78-79.94,50.17,53-74.15,81.12-50.8-54.18Z"></path><path class="cls-1" d="m0,184.38l33.68-.14,71.37,108.13c.36.67,1.37.41,1.36-.35l-2.65-81.28c-.06-5.6.31-9.93-.59-12.37-.9-2.43-1.18-3.76-2.94-5.01-1.76-1.24-16.49-1.39-16.49-1.39l-.11-9.87,48.41.37,1.18,9-17.67-.17,3.53,155.78-11.34.13-74.22-115.54c-.37-.59-1.28-.31-1.26.38l2.2,95.77c.06,3.85,3.13,6.98,6.98,7.1l12.47.38.11,12.55-48.91-.48.29-10.6h13.39c2.36,0,4.27-1.92,4.25-4.28l-4.39-119.4c-.08-6.54-.25-10.52-.51-11.94-.59-2.67-1.69-4.59-3.3-5.76-1.61-1.16-6.62-1.24-11.37-1.19l-3.37.04-.11-9.87Z"></path><path class="cls-1" d="m143.11,182.32l58.75-.74.12,9.87-14.87-.15s-.29,1.84-.29,3.09c0,.88,35.93,116.17,35.93,116.17l31.01-105.18c1.2-4.04.23-5.84.2-7.9-.03-2.29-3.74-4.29-5.01-5.3-1.26-1.01-8.59-1.28-12.47-1.23l-4.31.05-.12-9.87,52.71-.88.12,9.87c-3.5-.04-12.96.56-12.96.56l-48.59,156.69-13.26.16-48.93-140.04c-1.49-4.56-2.53-7.39-3.1-8.49-.9-1.65-1.9-2.98-3-3.99-1.11-1.01-2.41-1.77-3.92-2.26-1.51-.5-5.2-.59-7.88-.56l-.12-9.87Z"></path><path class="cls-1" d="m259.84,286.86c6.34-20.27,25.47-29.2,50.8-20.76,21.2,7.07,25.62,37.1,3.53,40.64-13.27,2.12-13.11-1.37-11.93-7.07.39-1.9,9.17-.44,10.6-4.42,5.74-15.9-38.43-16.79-38.43,3.53s26.61,31.54,46.82,32.25c17.99,1.13,45.5-17.23,46.38-39.75,1.16-29.66-53.89-29.6-70.95-54.34-24.83-36.01,15.73-66.69,49.74-51.68v-4.86h12.37c2.65,12.37.88,54.33.88,54.33h-11.48s.87-28.26-4.72-34.69c-21.34-24.5-62.42,12.16-9.41,32.92,38.19,14.96,58.31,27.39,57.42,60.96-1.03,39.3-59.63,69.35-109.99,42.4-15.51-8.3-28.27-28.27-21.64-49.47Z"></path></g></svg> 