<?xml version="1.0" encoding="UTF-8"?> <svg xmlns="http://www.w3.org/2000/svg" viewBox="0 0 47.52 48.58"><g id="Layer_2" data-name="Layer 2"><g id="Layer_1-2" data-name="Layer 1"><path fill="#fff" d="M40.58,23.3V2.77A2.81,2.81,0,0,0,37.81,0H28.07A2.8,2.8,0,0,0,25.3,2.77V10.4a.85.85,0,0,0,.88.88H30a.85.85,0,0,0,.88-.88V5.54H35V22.43H29.25v-2.9a.84.84,0,0,0-.88-.88H19.23a.84.84,0,0,0-.88.88v2.9H12.41V5.54h4.2V10.4a.85.85,0,0,0,.88.88h3.78a.85.85,0,0,0,.88-.88V2.77A2.81,2.81,0,0,0,19.38,0H9.64A2.81,2.81,0,0,0,6.87,2.77V23.38A11.14,11.14,0,0,0,9.14,44.63V47.7a.84.84,0,0,0,.88.88h5.36a.84.84,0,0,0,.88-.88V44.8H31.19v2.9a.84.84,0,0,0,.88.88h5.36a.84.84,0,0,0,.88-.88V44.56A11.12,11.12,0,0,0,40.58,23.3ZM30,3.78a.85.85,0,0,0-.88.88V9.51h-2V2.77a1,1,0,0,1,1-1h9.74a1,1,0,0,1,1,1v20a12.16,12.16,0,0,0-2-.28V4.66a.84.84,0,0,0-.88-.88ZM20.11,20.41h7.38v2H20.11ZM8.63,2.77a1,1,0,0,1,1-1h9.74a1,1,0,0,1,1,1V9.51h-2V4.66a.84.84,0,0,0-.88-.88h-6a.84.84,0,0,0-.88.88V22.43a10.84,10.84,0,0,0-2,.27ZM14.5,46.82H10.9V44.74c.53,0,.75,0,1.28,0s1.09,0,2.32,0Zm22,0H33v-2h3.6Zm8.05-8.61H40.53a.88.88,0,1,0,0,1.76h2.88a9.91,9.91,0,0,1-7,3.07H11.23a9.2,9.2,0,0,1-7-3.14H6.92a.88.88,0,0,0,0-1.76H3a9.75,9.75,0,0,1-1.07-3.61H4a.88.88,0,0,0,0-1.76H1.92A8.61,8.61,0,0,1,3.07,29.1H7a.88.88,0,1,0,0-1.76H4.25a9.39,9.39,0,0,1,7-3.08H36.37a9.39,9.39,0,0,1,7,3.08H40.53a.88.88,0,0,0,0,1.76h4.08a8.71,8.71,0,0,1,1.07,3.67H43.55a.88.88,0,0,0,0,1.76h2.13A10.13,10.13,0,0,1,44.6,38.21Z"></path><path fill="#fff" d="M23.78,26.3a.93.93,0,0,0-.8.33h0c-.45.67-4.4,6.67-4.4,9.2a5.11,5.11,0,1,0,10.21,0c0-2.52-3.95-8.53-4.39-9.2A.77.77,0,0,0,23.78,26.3Zm2.37,11.85a3.45,3.45,0,0,1-2.46,1,3.39,3.39,0,0,1-3.35-3.35c0-.7.58-2.5,3.35-7.09,1.66,2.57,3.34,5.87,3.34,7.1A3.12,3.12,0,0,1,26.15,38.15Z"></path><path fill="#fff" d="M28.19,14.93v-.76a.88.88,0,0,0-1.76,0v.76a.85.85,0,0,0,.88.88A.89.89,0,0,0,28.19,14.93Z"></path><path fill="#fff" d="M32,16.44v-.76a.88.88,0,0,0-1.76,0v.76a.85.85,0,0,0,.88.88A.89.89,0,0,0,32,16.44Z"></path><path fill="#fff" d="M19.18,14.17v.76a.88.88,0,0,0,1.76,0v-.76a.84.84,0,0,0-.88-.88A.89.89,0,0,0,19.18,14.17Z"></path><path fill="#fff" d="M15.4,15.68v.76a.89.89,0,0,0,1.77,0v-.76a.89.89,0,0,0-1.77,0Z"></path></g></g></svg> 