<!DOCTYPE svg PUBLIC "-//W3C//DTD SVG 1.1//EN" "http://www.w3.org/Graphics/SVG/1.1/DTD/svg11.dtd">
<!-- Uploaded to: SVG Repo, www.svgrepo.com, Transformed by: SVG Repo Mixer Tools -->
<svg fill="#ffffff" height="800px" width="800px" version="1.1" id="Layer_1" xmlns="http://www.w3.org/2000/svg" xmlns:xlink="http://www.w3.org/1999/xlink" viewBox="0 0 512.001 512.001" xml:space="preserve" stroke="#ffffff">
<g id="SVGRepo_bgCarrier" stroke-width="0"/>
<g id="SVGRepo_tracerCarrier" stroke-linecap="round" stroke-linejoin="round"/>
<g id="SVGRepo_iconCarrier"> <g> <g> <path d="M140.562,289.144H98.345c-4.832,0-8.749,3.916-8.749,8.749v42.216c0,4.833,3.917,8.749,8.749,8.749h42.217 c4.832,0,8.749-3.916,8.749-8.749v-42.216C149.311,293.06,145.394,289.144,140.562,289.144z M131.813,331.359h-24.719v-24.718 h24.719V331.359z"/> </g> </g> <g> <g> <path d="M413.623,289.144h-42.217c-4.832,0-8.749,3.916-8.749,8.749v42.217c0,4.833,3.917,8.749,8.749,8.749h42.217 c4.832,0,8.749-3.916,8.749-8.749v-42.217C422.372,293.06,418.455,289.144,413.623,289.144z M404.874,331.36h-24.719v-24.719 h24.719V331.36z"/> </g> </g> <g> <g> <path d="M471.609,98.286h-96.816V81.511c0-38.42-31.256-69.676-69.676-69.676h-98.263c-38.42,0-69.676,31.256-69.676,69.676 v16.775H40.393C18.12,98.286,0,116.405,0,138.678v122.329c0,15.815,5.54,30.353,14.767,41.803v152.755 c0,24.594,20.008,44.602,44.603,44.602h393.263c24.594,0,44.603-20.007,44.603-44.602V302.81 c9.226-11.45,14.766-25.988,14.766-41.802v-122.33C512,116.405,493.881,98.286,471.609,98.286z M154.675,81.511 c0-28.77,23.407-52.178,52.178-52.178h98.263c28.772,0,52.178,23.407,52.178,52.178v16.775h-29.164V81.511 c0-12.69-10.324-23.015-23.015-23.015h-98.263c-12.69,0-23.015,10.325-23.015,23.015v16.775h-29.163V81.511z M310.633,81.511 v16.775H201.337V81.511c0-3.041,2.475-5.517,5.517-5.517h98.263C308.159,75.995,310.633,78.47,310.633,81.511z M479.736,455.565 c0,14.946-12.159,27.103-27.104,27.103H59.37c-14.946,0-27.105-12.159-27.105-27.103V318.139c10.203,6.158,22.081,9.527,34,9.61 v35.693c0,4.833,3.917,8.749,8.749,8.749h7.784v17.573c0,20.211,16.444,36.655,36.655,36.655 c20.211,0,36.655-16.444,36.655-36.655V372.19h7.785c4.832,0,8.749-3.916,8.749-8.749V327.75h166.683v35.691 c0,4.833,3.917,8.749,8.749,8.749h7.786v17.573c0,20.211,16.444,36.655,36.655,36.655c20.211,0,36.655-16.444,36.655-36.655 V372.19h7.784c4.832,0,8.749-3.916,8.749-8.749v-35.693c11.935-0.077,23.814-3.447,34.031-9.61V455.565z M147.36,283.31h7.785 v35.69v35.691h-7.785H91.549h-7.784v-35.691v-35.69h7.784H147.36z M100.298,265.812v-36.73h38.314v36.73H100.298z M138.611,372.19 v17.573c0,10.563-8.594,19.157-19.157,19.157c-10.563,0-19.157-8.594-19.157-19.157V372.19H138.611z M420.421,283.31h7.784v35.69 v35.691h-7.784h-55.812h-7.785v-35.691v-35.69h7.785H420.421z M373.359,265.812v-36.73h38.313v36.73H373.359z M411.672,372.19 v17.573c0,10.563-8.594,19.157-19.157,19.157c-10.563,0-19.157-8.594-19.157-19.157V372.19H411.672z M494.502,261.007 L494.502,261.007c0,15.511-7.549,30.428-20.048,39.617c-8.281,6.088-18.467,9.52-28.75,9.615v-35.677 c0-4.833-3.917-8.749-8.749-8.749h-7.784v-45.479c0-4.833-3.917-8.749-8.749-8.749h-55.812c-4.832,0-8.749,3.916-8.749,8.749 v45.479h-7.786c-4.832,0-8.749,3.916-8.749,8.749v35.69H172.643v-35.69c0-4.833-3.917-8.749-8.749-8.749h-7.785v-45.479 c0-4.833-3.917-8.749-8.749-8.749H91.549c-4.832,0-8.749,3.916-8.749,8.749v45.479h-7.784c-4.832,0-8.749,3.916-8.749,8.749 v35.677c-0.433-0.005-0.864-0.019-1.295-0.035c-16.021-0.566-31.12-9.26-39.745-22.746c-5.035-7.868-7.728-17.111-7.728-26.45 V138.678c0-12.624,10.27-22.895,22.894-22.895h105.533h46.662h126.795h46.662h105.565c12.624,0,22.893,10.27,22.893,22.895 V261.007z"/> </g> </g> </g>
</svg>