<?xml version="1.0" encoding="UTF-8"?> <svg xmlns="http://www.w3.org/2000/svg" viewBox="0 0 51.75 52.71"><g id="Layer_2" data-name="Layer 2"><g id="Layer_1-2" data-name="Layer 1"><path fill="#fff" d="M11.87,32.53a.93.93,0,0,0-.63-.33h-.08a.94.94,0,0,0-.6.22L6.43,36a2.21,2.21,0,0,0-.25,3.11l7,8.18a2.05,2.05,0,0,0,2.89.23l1.15-1a5,5,0,0,0,.56-7.08ZM16,45.07l-1.29,1.1L7.6,37.85a.35.35,0,0,1,0-.48l3.42-2.92,5.27,6.18A3.16,3.16,0,0,1,16,45.07Z"></path><path fill="#fff" d="M33.4,16.73l6.94-5.93a.93.93,0,0,0-.6-1.64,1,1,0,0,0-.61.23l-6.94,5.92a.92.92,0,0,0-.1,1.31A1,1,0,0,0,33.4,16.73Z"></path><path fill="#fff" d="M42.93,8.6l2.37-2a.94.94,0,0,0,.1-1.32.93.93,0,0,0-.71-.32.91.91,0,0,0-.6.22l-2.37,2a.92.92,0,0,0-.13,1.33A1,1,0,0,0,42.93,8.6Z"></path><path fill="#fff" d="M50.49,40.65,34.88,26.59l-.06-.12-.17-1.22,2.67.35a.93.93,0,0,0,.79-.27,1,1,0,0,0,.26-.79L38,21.87l2.68.34a.91.91,0,0,0,.78-.27.93.93,0,0,0,.26-.78l-.38-2.67,2.68.35a1,1,0,0,0,.78-.27,1,1,0,0,0,.26-.79l-.37-2.67,2.67.35a1,1,0,0,0,.78-.27,1,1,0,0,0,.26-.79L48,11.73l2.68.34a.91.91,0,0,0,.78-.27.93.93,0,0,0,.26-.78L51.2,7.13,51.43,7h0l-.24.05,0-.1a.14.14,0,0,0,0-.06l0-.1A.18.18,0,0,0,51,6.74l0-.06L45.8.34A1,1,0,0,0,45.16,0a.94.94,0,0,0-.69.22l-21,17.9-3.68-3.69L21,13.22a2.77,2.77,0,0,0,.66-2.86l0-.11.06-.1A13.81,13.81,0,0,1,24.06,7.1c.64-.5,3.35-2,4.9-2.79a.9.9,0,0,0,.49-.69.89.89,0,0,0-.26-.79L28.11,1.74a.93.93,0,0,0-.79-.26A45,45,0,0,0,21,2.79a22.54,22.54,0,0,0-4.43,2.27l-.1.06-.11,0a2.72,2.72,0,0,0-2.83.66L6.93,12.37a2.78,2.78,0,0,0-.46,3.29l.09.16-1.4,1.4L5,17.14a3,3,0,0,0-3.44.6L.27,19a.94.94,0,0,0,0,1.32L6.42,26.5a1,1,0,0,0,1.32,0L9,25.21a3,3,0,0,0,.59-3.44l-.07-.15L11,20.21l.17.09a2.74,2.74,0,0,0,3.28-.46l1.22-1.21L19,22l-6.54,5.58-.14,0a2.62,2.62,0,0,0-.87-.17A2.57,2.57,0,0,0,9.77,28L1.16,35.3a2.55,2.55,0,0,0-.29,3.58L11.5,51.33a3.92,3.92,0,0,0,5.53.44l2.57-2.19a9.12,9.12,0,0,0,2.53-10.33L22,38.86l2,.25a.92.92,0,0,0,.78-.27,1,1,0,0,0,.26-.78l-.37-2.67,2.67.34a.9.9,0,0,0,.78-.27.92.92,0,0,0,.26-.53l.07-.53L41.8,49.27a4.31,4.31,0,0,0,6.13,0l2.56-2.56a4.32,4.32,0,0,0,0-6.1ZM45,2.26l4.43,5.39.33,2.42-2.67-.35a.93.93,0,0,0-1,1l.37,2.68L43.7,13.1a1,1,0,0,0-.78.27.93.93,0,0,0-.26.79L43,16.83l-2.67-.35a.93.93,0,0,0-1,1.06l.37,2.67L37,19.87a.92.92,0,0,0-.78.27.94.94,0,0,0-.26.78l.38,2.67-2.68-.34a1,1,0,0,0-.78.26,1,1,0,0,0-.26.79l.23,1.63-.25,0a2.8,2.8,0,0,0-.79.25l-.16.08-6.85-6.85ZM18.34,6.17a18.91,18.91,0,0,1,3.28-1.62,26,26,0,0,1,3.46-.81l1.48-.28-1.31.74a23.54,23.54,0,0,0-2.33,1.42,13,13,0,0,0-2.34,2.81l-.16.25L18.07,6.33ZM7.71,23.89l-.63.63L2.25,19.69l.63-.63a1.19,1.19,0,0,1,1.66,0l0,.05,3.12,3.12a1.16,1.16,0,0,1,0,1.66Zm.61-3.69L6.57,18.45l1.25-1.26L9.58,19Zm4.77-1.68a.91.91,0,0,1-.65.26.88.88,0,0,1-.65-.26L8.25,15a.91.91,0,0,1,0-1.29l6.62-6.62a.92.92,0,0,1,1.29,0l3.54,3.54a.91.91,0,0,1,0,1.29Zm7.81,24.7h0a7.17,7.17,0,0,1-2.51,4.94l-2.57,2.19a2.07,2.07,0,0,1-1.33.47h-.17a2.08,2.08,0,0,1-1.4-.7L2.29,37.67a.68.68,0,0,1,.08-1L11,29.37a.69.69,0,0,1,.95.07L19.19,38A7.15,7.15,0,0,1,20.9,43.22Zm5.65-13.16a1,1,0,0,0-.34.21,1,1,0,0,0-.26.79l.37,2.67-2.67-.35a.91.91,0,0,0-.78.27,1,1,0,0,0-.26.78L23,37.11l-2.31-.3-.06-.07-6.77-7.93,6.45-5.51,6.62,6.62ZM16.93,17.31l1.56-1.56L30.26,27.53l-1.55,1.55ZM49.17,45.43,46.61,48a2.48,2.48,0,0,1-3.43,0l-14-15.5a1,1,0,0,1,0-1.34l3.11-3.1a1,1,0,0,1,1.34,0L49.18,42A2.46,2.46,0,0,1,49.17,45.43Z"></path><path fill="#fff" d="M39.31,35.1A.93.93,0,1,0,38,36.45l1.35,1.28a1,1,0,0,0,1.31,0,.93.93,0,0,0,0-1.32Z"></path><path fill="#fff" d="M42.93,38.53a.93.93,0,0,0-1.28,1.35l4.26,4a1,1,0,0,0,1.32,0,.92.92,0,0,0,0-1.31Z"></path></g></g></svg> 