<?xml version="1.0" encoding="UTF-8"?> <svg xmlns="http://www.w3.org/2000/svg" viewBox="0 0 49.97 50.93"><g id="Layer_2" data-name="Layer 2"><g id="Layer_1-2" data-name="Layer 1"><path fill="#fff" d="M48.91,21.54H45.09v-3.4A1,1,0,0,0,44,17.08H41.7V4.14A4.14,4.14,0,0,0,37.56,0H13.37A4.14,4.14,0,0,0,9.23,4.14V8.81A10.24,10.24,0,0,0,0,19V49.87a1,1,0,0,0,1.06,1.06H19.31a1,1,0,0,0,1.06-1.06V18a10.07,10.07,0,0,0-9-9.13V4.14a2,2,0,0,1,2-2H24.3V49.87a1.06,1.06,0,0,0,2.12,0V2.12H37.56a2,2,0,0,1,2,2V17.08H35.44a1,1,0,0,0-1.06,1.06v3.4H30.56A1,1,0,0,0,29.5,22.6V49.87a1,1,0,0,0,1.06,1.06H48.91A1,1,0,0,0,50,49.87V22.6A1.06,1.06,0,0,0,48.91,21.54ZM18.14,18.25c.11.53,0,30,0,30.56H2V19a7.64,7.64,0,0,1,2.22-5.52,10.68,10.68,0,0,0,5.95,1.91,10.13,10.13,0,0,0,5.94-1.91A8.45,8.45,0,0,1,18.14,18.25ZM14.32,12.1a7.95,7.95,0,0,1-8.27,0,8,8,0,0,1,4.14-1.17A8.34,8.34,0,0,1,14.32,12.1ZM36.5,19.2H43v2.34H36.5ZM47.85,48.81H31.62V23.66H47.85Z"></path><path fill="#fff" d="M39.79,35.33a5.09,5.09,0,1,0,0-10.18,5.09,5.09,0,0,0-5.1,5.09A5.17,5.17,0,0,0,39.79,35.33Zm0-8.06a3,3,0,1,1-3,3A3,3,0,0,1,39.79,27.27Z"></path><path fill="#fff" d="M43.71,38H35.86a1.07,1.07,0,0,0,0,2.13h7.85A1,1,0,0,0,44.77,39,1.07,1.07,0,0,0,43.71,38Z"></path><path fill="#fff" d="M43.71,43.61H35.86a1.06,1.06,0,0,0,0,2.12h7.85a1,1,0,0,0,1.06-1.06A1.06,1.06,0,0,0,43.71,43.61Z"></path></g></g></svg> 