<?xml version="1.0" encoding="UTF-8"?> <svg xmlns="http://www.w3.org/2000/svg" viewBox="0 0 41.48 41.49"><g id="Layer_2" data-name="Layer 2"><g id="Layer_1-2" data-name="Layer 1"><path fill="#fff" d="M39.83,2.33a.83.83,0,0,0-.68-.67A104.16,104.16,0,0,0,20.74,0,104.28,104.28,0,0,0,2.32,1.66a.83.83,0,0,0-.67.67,103.59,103.59,0,0,0,0,36.83.84.84,0,0,0,.67.68,105.21,105.21,0,0,0,18.42,1.65,104.16,104.16,0,0,0,18.41-1.66.83.83,0,0,0,.68-.67A103.59,103.59,0,0,0,39.83,2.33Zm-1.54,36a103.07,103.07,0,0,1-17.55,1.52A103.07,103.07,0,0,1,3.19,38.3a101.91,101.91,0,0,1,0-35.1,101.42,101.42,0,0,1,35.1,0A101.91,101.91,0,0,1,38.29,38.3Z"></path><path fill="#fff" d="M20.74,7.27A13.48,13.48,0,1,0,34.21,20.75,13.49,13.49,0,0,0,20.74,7.27Zm0,25.29A11.81,11.81,0,1,1,32.55,20.75,11.83,11.83,0,0,1,20.74,32.56Z"></path><path fill="#fff" d="M18,20.75V15.07a.85.85,0,0,0-.84-.84H14.74a.85.85,0,0,0-.84.84v5.68a.84.84,0,0,0,.84.83H17.2A.84.84,0,0,0,18,20.75Zm-1.67-.84h-.8v-4h.8Z"></path><path fill="#fff" d="M26.74,14.23H24.27a.84.84,0,0,0-.83.84v5.68a.83.83,0,0,0,.83.83h2.47a.83.83,0,0,0,.83-.83V15.07A.84.84,0,0,0,26.74,14.23Zm-.84,5.68h-.79v-4h.79Z"></path><path fill="#fff" d="M23.2,24.2H18.27a.83.83,0,0,0-.83.83V27.5a.83.83,0,0,0,.83.83H23.2A.84.84,0,0,0,24,27.5V25A.84.84,0,0,0,23.2,24.2Zm-.83,2.46H19.11v-.79h3.26Z"></path></g></g></svg> 