<?xml version="1.0" encoding="UTF-8"?> <!-- Generator: Adobe Illustrator 24.2.3, SVG Export Plug-In . SVG Version: 6.00 Build 0) --> <svg xmlns="http://www.w3.org/2000/svg" xmlns:xlink="http://www.w3.org/1999/xlink" version="1.1" id="Layer_1" x="0px" y="0px" viewBox="0 0 44 61" style="enable-background:new 0 0 44 61;" xml:space="preserve"> <style type="text/css"> .st0{fill:#fff;} </style> <path class="st0" d="M34.3,39.7h-2v-2c0-0.3-0.1-0.5-0.3-0.7c-0.2-0.2-0.4-0.3-0.7-0.3h-4c-0.6,0-1,0.5-1,1v2h-2c-0.6,0-1,0.5-1,1v4 c0,0.3,0.1,0.5,0.3,0.7c0.2,0.2,0.4,0.3,0.7,0.3h2v2c0,0.3,0.1,0.5,0.3,0.7c0.2,0.2,0.4,0.3,0.7,0.3h4c0.3,0,0.5-0.1,0.7-0.3 c0.2-0.2,0.3-0.4,0.3-0.7v-2h2c0.3,0,0.5-0.1,0.7-0.3c0.2-0.2,0.3-0.4,0.3-0.7v-4c0-0.3-0.1-0.5-0.3-0.7 C34.8,39.8,34.5,39.7,34.3,39.7z M33.3,43.7h-2c-0.6,0-1,0.5-1,1v2h-2v-2c0-0.3-0.1-0.5-0.3-0.7c-0.2-0.2-0.4-0.3-0.7-0.3h-2v-2h2 c0.3,0,0.5-0.1,0.7-0.3c0.2-0.2,0.3-0.4,0.3-0.7v-2h2v2c0,0.3,0.1,0.5,0.3,0.7c0.2,0.2,0.4,0.3,0.7,0.3h2V43.7z M41.2,32.8 L41.2,32.8l-6.9-11.5v-4.8h3c0.3,0,0.5-0.1,0.7-0.3c0.2-0.2,0.3-0.4,0.3-0.7v-2c0-3.9-3.2-7-7.1-7.1H13.1c-0.6,0-1,0.5-1,1v4 c0,0.3,0.1,0.5,0.3,0.7c0.2,0.2,0.4,0.3,0.7,0.3h3v9.1c0,0.3,0.1,0.5,0.3,0.7c0.2,0.2,0.4,0.3,0.7,0.3c1.3,0,2.6-0.5,3.6-1.5 c0.9-0.9,1.5-2.2,1.5-3.6v-1h2v4.8l-6.9,11.5c-1.4,2.4-2.2,5-2.2,7.8v15.2c0,1.3,0.5,2.6,1.5,3.6c0.9,0.9,2.2,1.5,3.6,1.5h18.1 c1.3,0,2.6-0.5,3.6-1.5c0.9-0.9,1.5-2.2,1.5-3.6V40.6C43.3,37.8,42.6,35.1,41.2,32.8z M16.1,10.4h-2v-2h2V10.4z M20.2,17.5 c0,1.3-0.8,2.4-2,2.9v-3.9h2V17.5z M18.1,14.5v-6h13.1c1.3,0,2.6,0.5,3.6,1.5c0.9,0.9,1.5,2.2,1.5,3.6v1H18.1z M32.3,16.5v4h-6v-4 H32.3z M25.8,22.5h6.9l6,10.1h-19L25.8,22.5z M41.3,55.8c0,1.7-1.4,3-3,3H20.2c-1.7,0-3-1.4-3-3v-3h24.2V55.8z M41.3,50.8H17.1V40.6 c0-2.1,0.5-4.1,1.4-5.9h21.3c0.9,1.8,1.4,3.9,1.4,5.9V50.8z M8.1,8.4h2v2h-2V8.4z M4,8.4h2v2H4V8.4z M2,10.4H0v-2h2V10.4z M9,6.8 l-1.7-1l1-1.7L10,5L9,6.8z M5.5,4.8l-1.7-1l1-1.7l1.7,1L5.5,4.8z M1.2,0L3,1L2,2.8l-1.7-1L1.2,0z M9,12.1l1,1.7l-1.7,1l-1-1.7 L9,12.1z M5.5,14.1l1,1.7l-1.7,1l-1-1.7L5.5,14.1z M2,16.1l1,1.7l-1.7,1l-1-1.7L2,16.1z"></path> </svg> 