<?xml version="1.0" encoding="UTF-8"?> <svg xmlns="http://www.w3.org/2000/svg" viewBox="0 0 62.17 48.72"><g id="Layer_2" data-name="Layer 2"><g id="Layer_1-2" data-name="Layer 1"><polygon points="23.94 33.19 23.69 33.17 23.7 33.23 23.94 33.19"></polygon><path fill="#fff" d="M62.11,23.77a.88.88,0,0,0-.81-.55H43.94l.21-.37A15.73,15.73,0,0,0,42,4.44,13.77,13.77,0,0,0,32.39,0h-.55a13.67,13.67,0,0,0-9.37,3.68c-.27.24-.53.5-.77.76L4.23,22.93,4.17,23l0,.06-.1.09-.1.09a15.58,15.58,0,0,0,.29,21,13.74,13.74,0,0,0,9.22,4.4l.06,0a.58.58,0,0,0,.19,0H36.14a.9.9,0,0,0,.6-.23L61.9,24.73A.88.88,0,0,0,62.11,23.77ZM23,5.64A12.09,12.09,0,0,1,40,4.93c.25.23.49.47.71.71a14,14,0,0,1,0,18.92L28.15,37.17l.14-.78a14.37,14.37,0,0,0-4.24-12.93A13.94,13.94,0,0,0,14,19a12.65,12.65,0,0,0-3.47.43l-.84.22ZM35.79,47H14.38a12.11,12.11,0,0,1-8.89-3.91A13.81,13.81,0,0,1,5.2,24.45a12.07,12.07,0,0,1,17.06-.33c.18.17.35.34.52.53,5,5.3,5.36,12,.88,17a9.79,9.79,0,0,1-7,3h-.05a9.93,9.93,0,0,1-7.3-3.21,11.17,11.17,0,0,1-3.07-8.06v-.08a8.81,8.81,0,0,1,2.19-5.54,7.58,7.58,0,0,1,5.38-2.22h.05A7.82,7.82,0,0,1,19.6,28,8.9,8.9,0,0,1,22,33.39a6.48,6.48,0,0,1-1.54,5,5.33,5.33,0,0,1-3.8,1.48,5.57,5.57,0,0,1-4.1-1.81,6.45,6.45,0,0,1-1.76-4.2v-.09a3.9,3.9,0,0,1,1-2.79,3.35,3.35,0,0,1,2.16-.72,3.46,3.46,0,0,1,2.53,1.12,3.94,3.94,0,0,1,1.07,2.54.87.87,0,0,0,1.74-.09,5.77,5.77,0,0,0-1.55-3.65,5.22,5.22,0,0,0-3.8-1.66,4.88,4.88,0,0,0-3.37,1.22l-.06.06a5.66,5.66,0,0,0-1.42,4v.11a8.27,8.27,0,0,0,2.22,5.33,7.34,7.34,0,0,0,5.37,2.34h.08a7.11,7.11,0,0,0,5-2,8.15,8.15,0,0,0,2-5.81v-.08a.63.63,0,0,0,0-.19.51.51,0,0,0,0-.09.77.77,0,0,1,0-.15h0l0-.07a10.62,10.62,0,0,0-2.82-6.35,9.54,9.54,0,0,0-7-3h0A9.46,9.46,0,0,0,7.2,26.53,10.59,10.59,0,0,0,4.54,33.2l0,.1a13.1,13.1,0,0,0,3.54,9.29,11.71,11.71,0,0,0,8.57,3.76h.05a11.54,11.54,0,0,0,8.21-3.47L42,25.78a6.93,6.93,0,0,0,.5-.58l.23-.27.15,0H59.11Z"></path></g></g></svg> 