<?xml version="1.0" encoding="UTF-8"?> <svg xmlns="http://www.w3.org/2000/svg" viewBox="0 0 53.05 33.81"><g id="Layer_2" data-name="Layer 2"><g id="Layer_1-2" data-name="Layer 1"><rect fill="#fff" x="36.1" y="16.03" width="8.09" height="1.74"></rect><rect fill="#fff" x="47.71" y="16.03" width="2.25" height="1.74"></rect><path fill="#fff" d="M53,8.73a4.53,4.53,0,0,0-4.68-4.55h0A3.71,3.71,0,0,0,44.45,7.8h1.74a2,2,0,0,1,2.13-1.89,2.83,2.83,0,0,1,3,2.91c0,1.14-.57,2.31-1.73,2.34H36.1V12.9H49.56A3.73,3.73,0,0,0,53,8.73Z"></path><path fill="#fff" d="M49.55,20.91H36.1v1.74H49.56c1.17,0,1.76,1.2,1.74,2.34a2.83,2.83,0,0,1-2.94,2.91h0A2,2,0,0,1,46.19,26H44.45a3.71,3.71,0,0,0,3.86,3.62h0A4.53,4.53,0,0,0,53,25.08,3.73,3.73,0,0,0,49.55,20.91Z"></path><path fill="#fff" d="M16.9,0A16.91,16.91,0,1,0,33.81,16.9,16.92,16.92,0,0,0,16.9,0Zm0,32.07A15.17,15.17,0,1,1,32.07,16.9,15.18,15.18,0,0,1,16.9,32.07Z"></path><path fill="#fff" d="M22.43,5.72a12,12,0,0,0-9,.77,10.34,10.34,0,0,0,1.24,7.28l.1.18-.15.13a4.08,4.08,0,0,0-.77.89l-.09.15-.17,0c-3.09-.6-3.73-5-4-7.31-4.87,1.4-6.46,4.57-5,9.94A12,12,0,0,0,9.7,25.18a10.42,10.42,0,0,0,5.68-4.72l.1-.18.2.07a3.5,3.5,0,0,0,1.15.22H17l.06.16c1,3-2.42,5.71-4.32,7.13,3.65,3.51,7.18,3.3,11.12-.63A12,12,0,0,0,27.72,19a10.38,10.38,0,0,0-6.93-2.56h-.2l0-.2a3.71,3.71,0,0,0-.39-1.1L20.08,15l.11-.13c2.06-2.39,6.16-.76,8.34.17C29.74,10.13,27.8,7.16,22.43,5.72ZM14,19.33a7.71,7.71,0,0,1-3.92,3.92l-.13.05-.11-.08a11.12,11.12,0,0,1-3.64-5.95C5.86,16.06,5,12,7.76,10.25l.3-.19.08.35c.43,2.08,1.65,5.67,4.92,6.37l.19,0V17A3.67,3.67,0,0,0,14,19.07l.09.12Zm2.94-.5a1.94,1.94,0,1,1,1.93-1.93A1.93,1.93,0,0,1,16.93,18.83Zm3.36-.46.07-.14h.15a7.67,7.67,0,0,1,5.36,1.43l.1.09v.13A11.12,11.12,0,0,1,22.63,26c-.71.71-2.81,2.6-5.07,2.6a3.75,3.75,0,0,1-1.8-.45L15.44,28l.27-.24c1.59-1.41,4.09-4.26,3.05-7.44l-.06-.19.17-.1A3.73,3.73,0,0,0,20.29,18.37Zm7-5.74-.34-.11c-2-.66-5.74-1.4-8,1.08l-.13.15-.17-.09a3.72,3.72,0,0,0-2.14-.42l-.16,0-.08-.13a7.72,7.72,0,0,1-1.43-5.36l0-.13.12,0a11.19,11.19,0,0,1,7-.19c1.21.33,5.18,1.64,5.29,4.88Z"></path></g></g></svg> 