<?xml version="1.0" encoding="UTF-8"?> <svg xmlns="http://www.w3.org/2000/svg" viewBox="0 0 65.12 59.01"><g id="Layer_2" data-name="Layer 2"><g id="Layer_1-2" data-name="Layer 1"><path fill="#fff" d="M59.52,23.9a3,3,0,1,0-3.05-3A3.06,3.06,0,0,0,59.52,23.9Zm0-4.07a1,1,0,1,1-1,1A1,1,0,0,1,59.52,19.83Z"></path><path fill="#fff" d="M48.33,23.9a4.07,4.07,0,1,0-4.07-4.07A4.07,4.07,0,0,0,48.33,23.9Zm0-6.1a2,2,0,1,1-2,2A2,2,0,0,1,48.33,17.8Z"></path><path fill="#fff" d="M27,29.77V29a3,3,0,0,0-1.52-2.63V3.05a3.06,3.06,0,0,0-6.11,0v23.3A3.07,3.07,0,0,0,17.8,29v.65c-4.84.54-5.73,3-5.91,5.34C11,47.61,1.07,51.55.65,51.71A1,1,0,0,0,.07,53a1,1,0,0,0,.35.46A29.14,29.14,0,0,0,17.88,59a33,33,0,0,0,10.33-1.6,1,1,0,0,0,.56-.49c4.42-8.49,4.13-14,3.24-20.86C31.46,31.83,29.59,30.31,27,29.77ZM21.37,3.05a1,1,0,1,1,2,0V25.93h-2ZM19.84,29a1,1,0,0,1,1-1h3.05a1,1,0,0,1,1,1v.55c-1-.05-2.06,0-3.18,0H19.84Zm7.31,26.64a32.61,32.61,0,0,1-9.72,1.3,20.26,20.26,0,0,0,6.4-8.22A1,1,0,0,0,22,47.92a18.31,18.31,0,0,1-7.66,8.63l-.2.14a27.05,27.05,0,0,1-4-.78,20.7,20.7,0,0,0,6-6.59,1,1,0,1,0-1.76-1A18.45,18.45,0,0,1,7.68,55l-.1.06A26.06,26.06,0,0,1,3,52.81,21.37,21.37,0,0,0,13.92,35.12c.11-1.51.27-3.57,6.06-3.57h1.8c5.36-.06,7.58-.09,8.21,4.78C30.85,42.91,31.11,47.85,27.15,55.62Z"></path><path fill="#fff" d="M24.42,33.56H18.31a1,1,0,0,0,0,2h6.11a1,1,0,1,0,0-2Z"></path><path fill="#fff" d="M62.06,25.93H57a3.06,3.06,0,0,0-6.11,0H45.65a4.06,4.06,0,0,0-7.87,0H35.61A3,3,0,0,0,34,31.58l1.31,2.48,1.43,17.87a7.17,7.17,0,0,0,7.1,6.55H53.8a7.17,7.17,0,0,0,7.1-6.55L62.26,35c.14-.22.27-.44.4-.66l1.54-3.19a3,3,0,0,0-2.14-5.21Zm-8.14-1a1,1,0,0,1,1,1h-2A1,1,0,0,1,53.92,24.92Zm1,3V38.51a13.58,13.58,0,0,1-5.33,1.15A16.75,16.75,0,0,1,42.73,38V28Zm0,12.71v5a3,3,0,0,0-.79.53c-.26.22-.31.26-.52.26s-.27,0-.53-.26a2.64,2.64,0,0,0-3.7,0c-.26.22-.31.26-.52.26s-.27,0-.53-.26a2.63,2.63,0,0,0-3.69,0c-.26.22-.32.26-.53.26s-.26,0-.52-.26a3.17,3.17,0,0,0-.88-.57V40.2a18.53,18.53,0,0,0,6.88,1.5A15.43,15.43,0,0,0,54.94,40.68ZM41.71,24.92a2,2,0,0,1,1.76,1H40A2,2,0,0,1,41.71,24.92ZM35.61,30a1,1,0,1,1,0-2H40.7v2Zm1.61,2H40.7c0,1.48,0,3.16,0,4.84a10.71,10.71,0,0,1-3.37-3.33ZM58.87,51.76a5.1,5.1,0,0,1-5.07,4.68H43.87a5.12,5.12,0,0,1-5.07-4.68L37.62,37a15.89,15.89,0,0,0,3.1,2.24c0,4,0,7.34,0,7.38a1,1,0,0,0,1,.85c.21,0,.26,0,.52.26a2.64,2.64,0,0,0,3.7,0c.26-.22.31-.26.52-.26s.27,0,.53.26a2.65,2.65,0,0,0,3.7,0c.25-.22.31-.26.52-.26s.27,0,.53.26a2.66,2.66,0,0,0,3.7,0c.26-.22.31-.26.52-.26h0a1,1,0,0,0,1-1s0-3.06,0-6.71a15.16,15.16,0,0,0,3-2.12Zm1.39-17.37a12.07,12.07,0,0,1-3.26,3c0-1.85,0-3.73,0-5.38h3.46ZM62.06,30H57V28h5.08a1,1,0,1,1,0,2Z"></path></g></g></svg> 