<?xml version="1.0" encoding="UTF-8"?> <svg xmlns="http://www.w3.org/2000/svg" viewBox="0 0 53.8 52.08"><g id="Layer_2" data-name="Layer 2"><g id="Layer_1-2" data-name="Layer 1"><path fill="#fff" d="M53.8,22.22A14.52,14.52,0,0,0,34,8.72a1.19,1.19,0,0,0-.67,1.54,1.17,1.17,0,0,0,.87.73,1.11,1.11,0,0,0,.67-.06,12.13,12.13,0,1,1,5.63,23.36V32.81l5.35-5.35a1.19,1.19,0,0,0-1.68-1.68l-3.67,3.67v-9.6a1.19,1.19,0,1,0-2.38,0V32.32h0v2a12.11,12.11,0,0,1-7.24-3.36,1.3,1.3,0,0,0-.59-.31,1.19,1.19,0,0,0-1.06,2,14.41,14.41,0,0,0,8.89,4V44A27.43,27.43,0,0,0,21,43.84V30.7a11.15,11.15,0,0,0,12.63-17,12.4,12.4,0,0,0-.92-1.14,11.14,11.14,0,0,0-6.09-3.4A9.45,9.45,0,0,0,8.12,6.79,6.91,6.91,0,0,0,2.89,17.21,11.14,11.14,0,0,0,17.13,34.09a10.64,10.64,0,0,0,1.5-1.15V44.67a41.59,41.59,0,0,0-9.36,5.27,1.18,1.18,0,0,0,.7,2.14,1.15,1.15,0,0,0,.7-.23c.45-.33.91-.65,1.36-1,11.73-8,23-8,34.24,0,.43.3.86.61,1.29.94a1.18,1.18,0,0,0,1.66-.22A1.19,1.19,0,0,0,49,50a39.49,39.49,0,0,0-8.52-5V36.68A14.54,14.54,0,0,0,53.8,22.22Zm-34-15a1.19,1.19,0,0,0-1.19,1.19V25.2l-7-7A1.19,1.19,0,0,0,10,19.89l8.67,8.67v.69A8.76,8.76,0,0,1,2.38,24.69a8.81,8.81,0,0,1,2.85-6.48,1.19,1.19,0,0,0,.11-1.64A4.52,4.52,0,0,1,8.81,9.14H9a1.19,1.19,0,0,0,1.23-1,7.06,7.06,0,0,1,14,1.27c0,.21,0,.42,0,.65a1.18,1.18,0,0,0,.27.87,1.21,1.21,0,0,0,.81.43,8.77,8.77,0,0,1-.78,17.5A8.57,8.57,0,0,1,21,28.15V22.3l5.15-5.16a1.18,1.18,0,0,0,0-1.68,1.2,1.2,0,0,0-1.68,0L21,18.94V8.37A1.19,1.19,0,0,0,19.82,7.18Z"></path></g></g></svg> 