<?xml version="1.0" encoding="UTF-8"?> <svg xmlns="http://www.w3.org/2000/svg" viewBox="0 0 62.06 54.82"><g id="Layer_2" data-name="Layer 2"><g id="Layer_1-2" data-name="Layer 1"><path fill="#fff" d="M61.64,37.44l-8.27-6.2a1,1,0,0,0-.62-.21H47.58V22.75h1a1,1,0,0,0,1-1h0V15.51a1,1,0,0,0-1-1H25.86a1,1,0,0,0-1,1h0v6.21a1,1,0,0,0,1,1h1V31H22.63L18.61.9a1,1,0,0,0-1-.9H3.1a3.11,3.11,0,0,0,0,6.21h9.46L16.38,31H13.87l-10-10a1,1,0,0,0-1.46,0,1,1,0,0,0-.3.73V42.41a1,1,0,0,0,1,1H15.61a6.19,6.19,0,0,0,12.22,0H44.57a6.19,6.19,0,0,0,12.22,0H61a1,1,0,0,0,1-1h0V38.27A1,1,0,0,0,61.64,37.44ZM12.41,41.37H4.14V24.22l8.27,8.27ZM26.89,16.55H47.58v4.14H26.89Zm18.62,6.2V31H29V22.75ZM14.47,5a1,1,0,0,0-1-.87H3.1a1,1,0,0,1,0-2.07H16.68l3.86,29H18.47Zm7.25,41.53a4.14,4.14,0,1,1,4.14-4.13A4.13,4.13,0,0,1,21.72,46.54Zm29,0a4.14,4.14,0,1,1,4.14-4.13A4.13,4.13,0,0,1,50.68,46.54ZM60,41.37h-3.2a6.2,6.2,0,0,0-12.22,0H27.83a6.2,6.2,0,0,0-12.22,0H14.48V33.1H52.4L60,38.79Z"></path><path fill="#fff" d="M40.34,29h2.07a1,1,0,0,0,0-2.07H40.34a1,1,0,1,0,0,2.07Z"></path><rect fill="#fff" x="16.55" y="52.75" width="2.07" height="2.07"></rect><rect fill="#fff" x="20.69" y="50.68" width="2.07" height="2.07"></rect><rect fill="#fff" x="2.07" y="52.75" width="2.07" height="2.07"></rect><rect fill="#fff" x="6.21" y="50.68" width="2.07" height="2.07"></rect><rect fill="#fff" x="44.47" y="52.75" width="2.07" height="2.07"></rect><rect fill="#fff" x="48.61" y="50.68" width="2.07" height="2.07"></rect><rect fill="#fff" x="55.85" y="52.75" width="2.07" height="2.07"></rect><rect fill="#fff" x="59.99" y="50.68" width="2.07" height="2.07"></rect><rect fill="#fff" x="29.99" y="52.75" width="2.07" height="2.07"></rect><rect fill="#fff" x="34.13" y="50.68" width="2.07" height="2.07"></rect></g></g></svg> 