<?xml version="1.0" encoding="UTF-8"?> <svg xmlns="http://www.w3.org/2000/svg" viewBox="0 0 40.84 40.84"><g id="Layer_2" data-name="Layer 2"><g id="Layer_1-2" data-name="Layer 1"><path fill="#fff" d="M38.57,13.61a2.27,2.27,0,0,0-2.27,2.27,2.24,2.24,0,0,0,1.12,1.94A20.46,20.46,0,0,1,28.36,34V32.9a1.14,1.14,0,0,0-1.13-1.14H25.49a17,17,0,1,0-16.95,0H6.81A1.14,1.14,0,0,0,5.67,32.9v6.8a1.14,1.14,0,0,0,1.14,1.14H27.23a1.14,1.14,0,0,0,1.13-1.14V36.65a22.69,22.69,0,0,0,11.32-18.8,2.26,2.26,0,0,0-1.11-4.24ZM2.27,17A14.75,14.75,0,1,1,17,31.76,14.76,14.76,0,0,1,2.27,17ZM26.09,38.57H7.94V34H26.09Z"></path><path fill="#fff" d="M17,9.08A8,8,0,0,1,25,17a1.14,1.14,0,0,0,2.27,0A10.22,10.22,0,0,0,17,6.81a1.14,1.14,0,1,0,0,2.27Z"></path><path fill="#fff" d="M18.15,26.09A1.13,1.13,0,0,0,17,25,8,8,0,0,1,9.08,17a1.14,1.14,0,1,0-2.27,0A10.22,10.22,0,0,0,17,27.23,1.14,1.14,0,0,0,18.15,26.09Z"></path><path fill="#fff" d="M17,20.42A3.41,3.41,0,1,0,13.61,17,3.41,3.41,0,0,0,17,20.42Zm0-4.54A1.14,1.14,0,1,1,15.88,17,1.14,1.14,0,0,1,17,15.88Z"></path></g></g></svg> 