<?xml version="1.0" encoding="UTF-8"?> <svg xmlns="http://www.w3.org/2000/svg" viewBox="0 0 38.97 53.25"><g id="Layer_2" data-name="Layer 2"><g id="Layer_1-2" data-name="Layer 1"><path fill="#fff" d="M26.63,19.07v-1a7.16,7.16,0,0,0-6-7V0H18.34V11a7.14,7.14,0,0,0-6,7.05v1A19.51,19.51,0,0,0,0,37.19v1.14H12.9a6.43,6.43,0,0,0,12.86,0H39V37.19A19.51,19.51,0,0,0,26.63,19.07Zm-12-1a4.86,4.86,0,0,1,9.72,0v.23a19.51,19.51,0,0,0-9.72,0Zm4.71,24.37a4.15,4.15,0,0,1-4.14-4.13h8.3A4.16,4.16,0,0,1,19.33,42.46Zm-17-6.41a17.2,17.2,0,0,1,34.3,0Z"></path><rect fill="#fff" x="18.34" y="48.67" width="2.29" height="4.57"></rect><rect fill="#fff" x="25.77" y="45.82" width="2.29" height="4.57" transform="translate(-26.13 33.12) rotate(-45)"></rect><rect fill="#fff" x="9.77" y="46.96" width="4.57" height="2.29" transform="translate(-30.48 22.61) rotate(-45)"></rect></g></g></svg> 