<?xml version="1.0" encoding="UTF-8"?> <svg xmlns="http://www.w3.org/2000/svg" viewBox="0 0 50.58 50.58"><g id="Layer_2" data-name="Layer 2"><g id="Layer_1-2" data-name="Layer 1"><path fill="#fff" d="M50.31,25.76,25.2.65a.94.94,0,0,0-1.32,0L22.13,2.4l-.21-.2a7.48,7.48,0,0,0-10.59,0L8.5,5a7.5,7.5,0,0,0,0,10.59l9.92,9.93a1.86,1.86,0,0,1,0,2.64L15.91,30.7l-1.32-1.32h0a.92.92,0,0,0-1.32,0L10.61,32a.9.9,0,0,0-.28.66.94.94,0,0,0,.28.66l.66.66L4.91,40.37l-.66-.66h0a.93.93,0,0,0-.66-.27,1,1,0,0,0-.67.27h0L.27,42.36a.94.94,0,0,0,0,1.32L6.9,50.31a.94.94,0,0,0,1.32,0l2.65-2.65a1.06,1.06,0,0,0,.21-.31,1,1,0,0,0,0-.71,1.06,1.06,0,0,0-.21-.31h0l-.66-.66,6.36-6.36.66.66a.9.9,0,0,0,.66.28.94.94,0,0,0,.67-.28l2.65-2.65a.94.94,0,0,0,0-1.32l-1.33-1.32,2.52-2.52a7.51,7.51,0,0,0,0-10.6l-9.92-9.92a1.88,1.88,0,0,1,0-2.65L15.3,6.17a1.88,1.88,0,0,1,2.65,0l.21.21L16.41,8.12a1,1,0,0,0-.28.67.94.94,0,0,0,.28.66l25.1,25.1a.9.9,0,0,0,.66.28.94.94,0,0,0,.67-.28l7.47-7.47A.94.94,0,0,0,50.31,25.76Zm-8.14,6.81L18.4,8.79,20.14,7h0l2.64-2.64h0l1.75-1.75L48.32,26.42Zm-23,4.09L17.89,38l-5.3-5.3,1.33-1.33ZM8.88,47,7.56,48.32,2.26,43,3.59,41.7Zm0-2.65L6.24,41.7l6.35-6.36L15.24,38ZM19.27,4.84a3.74,3.74,0,0,0-5.29,0L11.15,7.67a3.75,3.75,0,0,0,0,5.3l9.92,9.92a5.62,5.62,0,0,1,0,7.94l-2.51,2.52L17.23,32l2.52-2.52a3.77,3.77,0,0,0,0-5.3L9.83,14.29a5.63,5.63,0,0,1,0-7.95l2.82-2.82a5.61,5.61,0,0,1,8,0l.21.21L19.48,5.05Z"></path><path fill="#fff" d="M36.09,31.78a.94.94,0,0,0-1.33,0l-5.49,5.49a.92.92,0,0,0,0,1.32.93.93,0,0,0,1.33,0l5.49-5.49A.94.94,0,0,0,36.09,31.78Z"></path><path fill="#fff" d="M38.86,35.88l-7.25,7.25a.94.94,0,0,0,1.32,1.33l7.26-7.26a.94.94,0,0,0-1.33-1.32Z"></path><path fill="#fff" d="M32,27.68a.94.94,0,0,0-1.33,0L26.94,31.4a.94.94,0,0,0,1.32,1.33L32,29A.94.94,0,0,0,32,27.68Z"></path></g></g></svg> 