<?xml version="1.0" encoding="UTF-8"?> <svg xmlns="http://www.w3.org/2000/svg" viewBox="0 0 51.62 51.62"><g id="Layer_2" data-name="Layer 2"><g id="Layer_1-2" data-name="Layer 1"><path fill="#fff" d="M38.22,14,38,13.72a5.76,5.76,0,0,0,.38-3.13A5.18,5.18,0,0,0,36.2,7.07L34.93,9a2.92,2.92,0,0,1,1.2,2,3.61,3.61,0,0,1-.06,1.35,7.36,7.36,0,0,0-3.4-.83,7.56,7.56,0,0,0-3.76,1l-1.69-1.79a1.13,1.13,0,0,0-.84-.37H24.09v2.3h1.8l1.24,1.31-.05.05-1.95,2.2c-.44.49-.84,1-1.23,1.51L22.61,16.4a1.14,1.14,0,0,0-.81-.34H19.5v2.29h1.82l1.29,1.29A22.87,22.87,0,0,0,21,22.94H18.35a1.14,1.14,0,0,0-1,.64l-1.15,2.29,2.05,1,.83-1.66h1.2A22.42,22.42,0,0,0,19.5,31a1.11,1.11,0,0,0,.34.81,1.14,1.14,0,0,0,.81.34,22.36,22.36,0,0,0,5.73-.76v1.2l-1.66.83,1,2,2.3-1.15a1.15,1.15,0,0,0,.63-1V30.62A21.87,21.87,0,0,0,32,29l1.29,1.29v1.82h2.29V29.83a1.18,1.18,0,0,0-.33-.82l-1.3-1.29c.52-.39,1-.79,1.51-1.22l2.2-2,.07-.07L39,25.72v1.81h2.3V25.24a1.18,1.18,0,0,0-.35-.83l-1.8-1.74a7.4,7.4,0,0,0,1-3.72,7.49,7.49,0,0,0-.63-3,3.25,3.25,0,0,1,1.39-.07,2.86,2.86,0,0,1,2,1.22l1.91-1.28A5.43,5.43,0,0,0,38.22,14ZM26.84,17.7l.87-1L30.5,19.5,22,28A20,20,0,0,1,26.84,17.7Zm7.07,7.08a19.85,19.85,0,0,1-10.26,4.81l8.47-8.47,2.78,2.79Zm2.66-2.45-7.28-7.28a5.16,5.16,0,0,1,7.28,7.28Z"></path><path fill="#fff" d="M31,0A20.68,20.68,0,0,0,10.32,20.65a20.47,20.47,0,0,0,3.3,11.14L.34,45.08a1.14,1.14,0,0,0,0,1.62l4.59,4.59a1.13,1.13,0,0,0,.81.33,1.17,1.17,0,0,0,.81-.33L19.83,38A20.47,20.47,0,0,0,31,41.3,20.65,20.65,0,0,0,31,0ZM5.74,48.85l-3-3L15,33.68a20.77,20.77,0,0,0,3,3ZM31,39A18.36,18.36,0,1,1,49.33,20.65,18.37,18.37,0,0,1,31,39Z"></path></g></g></svg> 