<?xml version="1.0" encoding="UTF-8"?> <svg xmlns="http://www.w3.org/2000/svg" viewBox="0 0 55.43 49.89"><g id="Layer_2" data-name="Layer 2"><g id="Layer_1-2" data-name="Layer 1"><path fill="#fff" d="M54.33,0H47.67a1.11,1.11,0,0,0-1.1,1.11h-20A1.11,1.11,0,0,0,25.5,0H18.85a1.11,1.11,0,0,0-1.11,1.11v13.3a1.11,1.11,0,0,0,1.11,1.11H25.5a1.11,1.11,0,0,0,1.11-1.11h1.11a2.22,2.22,0,0,1,1.94,1.17,1.08,1.08,0,0,0-.83,1v6.65a1.11,1.11,0,0,0,1.1,1.11v12.2H14.41V24.39a1.11,1.11,0,0,0,1.11-1.11V16.63a1.11,1.11,0,0,0-1.11-1.11H1.11A1.11,1.11,0,0,0,0,16.63v6.65a1.11,1.11,0,0,0,1.11,1.11V42.13a7.77,7.77,0,0,0,7.76,7.76H35.48a7.77,7.77,0,0,0,7.76-7.76V24.39a1.11,1.11,0,0,0,1.11-1.11V16.63a1.09,1.09,0,0,0-.83-1,2.21,2.21,0,0,1,1.94-1.17h1.11a1.1,1.1,0,0,0,1.1,1.11h6.66a1.1,1.1,0,0,0,1.1-1.11V1.11A1.11,1.11,0,0,0,54.33,0ZM24.39,13.3H20V2.22h4.43ZM12.2,47.67H8.87a5.54,5.54,0,0,1-5.54-5.54V38.8H12.2Zm0-11.08H3.33V24.39H12.2Zm1.1-14.42H2.22V17.74H13.3Zm16.63,25.5H14.41V38.8H29.93ZM41,42.13a5.55,5.55,0,0,1-5.54,5.54H32.15V38.8H41Zm0-5.54H32.15V24.39H41Zm1.11-14.42H31V17.74H42.13Zm4.44-10H45.46a4.44,4.44,0,0,0-4.3,3.32H32a4.43,4.43,0,0,0-4.29-3.32H26.61V3.33h20Zm6.65,1.1H48.78V2.22h4.44Z"></path></g></g></svg> 