<?xml version="1.0" encoding="UTF-8" standalone="no"?>
<!-- Created with Inkscape (http://www.inkscape.org/) -->

<svg
   version="1.1"
   id="svg2"
   width="86.826668"
   height="78.68"
   viewBox="0 0 86.826668 78.68"
   sodipodi:docname="sweeper.svg.ai"
   xmlns:inkscape="http://www.inkscape.org/namespaces/inkscape"
   xmlns:sodipodi="http://sodipodi.sourceforge.net/DTD/sodipodi-0.dtd"
   xmlns="http://www.w3.org/2000/svg"
   xmlns:svg="http://www.w3.org/2000/svg">
  <defs
     id="defs6">
    <clipPath
       clipPathUnits="userSpaceOnUse"
       id="clipPath16">
      <path
         d="M 0,59.01 H 65.12 V 0 H 0 Z"
         id="path14" />
    </clipPath>
  </defs>
  <sodipodi:namedview
     id="namedview4"
     pagecolor="#ffffff"
     bordercolor="#000000"
     borderopacity="0.25"
     inkscape:showpageshadow="2"
     inkscape:pageopacity="0.0"
     inkscape:pagecheckerboard="0"
     inkscape:deskcolor="#d1d1d1" />
  <g
     id="g8"
     inkscape:groupmode="layer"
     inkscape:label="sweeper.svg"
     transform="matrix(1.3333333,0,0,-1.3333333,0,78.68)">
    <g
       id="g10">
      <g
         id="g12"
         clip-path="url(#clipPath16)">
        <g
           id="g18"
           transform="translate(61.9663,36.4406)">
          <path
             d="m 0,0 c 0.552,0 1,-0.448 1,-1 0,-0.552 -0.448,-1 -1,-1 -0.552,0 -1,0.448 -1,1 0,0.552 0.448,1 1,1 m 0,-4.07 c 1.657,0.028 2.977,1.393 2.95,3.05 C 2.922,0.636 1.557,1.957 -0.1,1.929 -1.737,1.902 -3.05,0.567 -3.05,-1.07 c 0.033,-1.663 1.387,-2.995 3.05,-3"
             style="fill:#ffffff;fill-opacity:1;fill-rule:nonzero;stroke:none"
             id="path20" />
        </g>
        <g
           id="g22"
           transform="translate(27.0475,6.4142)">
          <path
             d="M 0,0 C -3.136,1.288 -6.063,3.05 -8.68,5.226 -5.046,5.155 -1.456,6.049 1.732,7.82 2.219,8.118 2.376,8.76 2.082,9.254 1.81,9.711 1.241,9.887 0.765,9.66 -2.806,7.695 -6.907,6.953 -10.927,7.545 l -0.251,0.015 c -0.99,1.005 -1.903,2.084 -2.733,3.228 3.089,-0.167 6.177,0.351 9.049,1.518 0.533,0.219 0.79,0.836 0.574,1.377 -0.217,0.54 -0.824,0.801 -1.357,0.581 -3.072,-1.226 -6.406,-1.618 -9.673,-1.138 l -0.119,0.016 c -0.908,1.523 -1.666,3.134 -2.264,4.808 7.517,-1.22 15.122,1.59 20.104,7.43 1.052,1.167 2.495,2.752 7.172,-0.996 l 1.454,-1.165 c 4.367,-3.42 6.179,-4.832 3.582,-9.231 C 11.108,8.038 8.167,3.821 0.013,0.016 Z m 11.088,26.565 c 0.352,0.452 1,0.529 1.446,0.172 l 2.463,-1.974 c 0.446,-0.358 0.522,-1.014 0.17,-1.467 l -0.351,-0.451 c -0.776,0.689 -1.664,1.334 -2.568,2.059 l -1.511,1.21 z m 17.788,20.277 c 0.352,0.453 1,0.53 1.446,0.172 0.446,-0.357 0.522,-1.014 0.17,-1.466 L 15.898,26.796 14.282,28.09 Z M 16.38,21.299 16.871,21.93 c 0.7,0.887 0.872,2.088 0.45,3.14 l 14.875,19.112 c 0.998,1.445 0.653,3.438 -0.772,4.451 -1.31,0.932 -3.101,0.718 -4.163,-0.496 L 12.399,29.041 C 11.28,29.222 10.151,28.781 9.44,27.885 L 9.026,27.352 c -4.254,2.69 -6.542,1.25 -8.18,-0.551 -8.768,-9.767 -19.302,-6.569 -19.743,-6.429 -0.542,0.174 -1.12,-0.131 -1.292,-0.681 0,0 0,0 0,0 -0.062,-0.196 -0.065,-0.406 -0.01,-0.604 1.753,-6.296 5.459,-11.851 10.568,-15.841 2.821,-2.285 5.982,-4.099 9.365,-5.374 0.25,-0.088 0.524,-0.074 0.764,0.039 8.986,4.097 12.266,8.801 15.923,14.999 2.247,3.814 1.707,6.27 -0.041,8.389"
             style="fill:#ffffff;fill-opacity:1;fill-rule:nonzero;stroke:none"
             id="path24" />
        </g>
        <g
           id="g26"
           transform="translate(26.8663,22.7105)">
          <path
             d="m 0,0 h -6.11 c -0.552,0 -1,-0.448 -1,-1 0,-0.552 0.448,-1 1,-1 H 0 c 0.552,0 1,0.448 1,1 0,0.552 -0.448,1 -1,1"
             style="fill:#ffffff;fill-opacity:1;fill-rule:nonzero;stroke:none"
             id="path28" />
        </g>
      </g>
    </g>
  </g>
</svg>
